<mxfile host="app.diagrams.net" agent="Mozilla/5.0 (Windows NT 10.0; Win64; x64) AppleWebKit/537.36 (KHTML, like Gecko) Chrome/131.0.0.0 Safari/537.36" version="26.0.8">
  <diagram name="Page-1" id="74e2e168-ea6b-b213-b513-2b3c1d86103e">
    <mxGraphModel dx="2893" dy="923" grid="1" gridSize="10" guides="1" tooltips="1" connect="1" arrows="1" fold="1" page="1" pageScale="1" pageWidth="1100" pageHeight="850" background="none" math="0" shadow="0">
      <root>
        <mxCell id="0" />
        <mxCell id="1" parent="0" />
        <mxCell id="SgHDp7JAvpH6ReRA1i13-77" value="" style="rounded=0;whiteSpace=wrap;html=1;fillColor=none;dashed=1;strokeWidth=3;strokeColor=light-dark(#82b0d2, #ededed);" vertex="1" parent="1">
          <mxGeometry x="100" y="40" width="981.25" height="650" as="geometry" />
        </mxCell>
        <mxCell id="SgHDp7JAvpH6ReRA1i13-28" value="" style="rounded=0;whiteSpace=wrap;html=1;fillColor=none;dashed=1;strokeWidth=3;strokeColor=light-dark(#82b0d2, #ededed);" vertex="1" parent="1">
          <mxGeometry x="120" y="150" width="380" height="130" as="geometry" />
        </mxCell>
        <mxCell id="SgHDp7JAvpH6ReRA1i13-79" style="edgeStyle=orthogonalEdgeStyle;rounded=0;orthogonalLoop=1;jettySize=auto;html=1;entryX=0.5;entryY=0;entryDx=0;entryDy=0;" edge="1" parent="1" source="SgHDp7JAvpH6ReRA1i13-55" target="SgHDp7JAvpH6ReRA1i13-71">
          <mxGeometry relative="1" as="geometry" />
        </mxCell>
        <mxCell id="SgHDp7JAvpH6ReRA1i13-55" value="" style="rounded=0;whiteSpace=wrap;html=1;fillColor=none;dashed=1;strokeWidth=3;strokeColor=light-dark(#82b0d2, #ededed);" vertex="1" parent="1">
          <mxGeometry x="580" y="510" width="440" height="170" as="geometry" />
        </mxCell>
        <mxCell id="SgHDp7JAvpH6ReRA1i13-56" value="" style="rounded=0;whiteSpace=wrap;html=1;fillColor=none;dashed=1;strokeWidth=3;strokeColor=light-dark(#82b0d2, #ededed);" vertex="1" parent="1">
          <mxGeometry x="112.5" y="460" width="390" height="220" as="geometry" />
        </mxCell>
        <mxCell id="SgHDp7JAvpH6ReRA1i13-1" value="&lt;p style=&quot;margin-top: 0pt; margin-bottom: 0pt; margin-left: 0in; direction: ltr; unicode-bidi: embed; word-break: normal;&quot;&gt;&lt;span style=&quot;color: rgb(86, 148, 194); font-weight: bold;&quot;&gt;&lt;font style=&quot;font-size: 26px;&quot;&gt;Tourism-policy Making with Multi-criteria Dimension&lt;/font&gt;&lt;/span&gt;&lt;span style=&quot;font-size: 16pt; color: rgb(86, 148, 194);&quot;&gt; &lt;/span&gt;&lt;/p&gt;" style="rounded=1;whiteSpace=wrap;html=1;fillColor=#f5f5f5;strokeColor=#666666;fontColor=#333333;" vertex="1" parent="1">
          <mxGeometry x="120" y="50" width="940" height="40" as="geometry" />
        </mxCell>
        <mxCell id="SgHDp7JAvpH6ReRA1i13-2" value="&lt;p style=&quot;margin-top: 0pt; margin-bottom: 0pt; margin-left: 0in; direction: ltr; unicode-bidi: embed; word-break: normal;&quot;&gt;&lt;font style=&quot;font-size: 18px;&quot;&gt;&lt;b&gt;&lt;span style=&quot;font-family: 微软雅黑;&quot;&gt;Multi-criteria &lt;/span&gt;&lt;span style=&quot;font-family: 微软雅黑;&quot;&gt;Decision-making &lt;/span&gt;&lt;span style=&quot;font-family: 微软雅黑;&quot;&gt;M&lt;/span&gt;&lt;span style=&quot;font-family: 微软雅黑;&quot;&gt;odel&lt;/span&gt;&lt;/b&gt;&lt;/font&gt;&lt;/p&gt;" style="rounded=1;whiteSpace=wrap;html=1;" vertex="1" parent="1">
          <mxGeometry x="117.5" y="110" width="380" height="30" as="geometry" />
        </mxCell>
        <mxCell id="SgHDp7JAvpH6ReRA1i13-32" style="edgeStyle=orthogonalEdgeStyle;rounded=0;orthogonalLoop=1;jettySize=auto;html=1;exitX=0.5;exitY=1;exitDx=0;exitDy=0;entryX=0.5;entryY=0;entryDx=0;entryDy=0;" edge="1" parent="1" source="SgHDp7JAvpH6ReRA1i13-3" target="SgHDp7JAvpH6ReRA1i13-4">
          <mxGeometry relative="1" as="geometry" />
        </mxCell>
        <mxCell id="SgHDp7JAvpH6ReRA1i13-3" value="&lt;p style=&quot;margin-top: 0pt; margin-bottom: 0pt; margin-left: 0in; direction: ltr; unicode-bidi: embed; word-break: normal;&quot;&gt;&lt;font style=&quot;font-size: 17px;&quot;&gt;&lt;span style=&quot;font-family: 微软雅黑;&quot;&gt;Actual Case &lt;/span&gt;&lt;span style=&quot;font-family: 微软雅黑;&quot;&gt;S&lt;/span&gt;&lt;span style=&quot;font-family: 微软雅黑;&quot;&gt;tudy&lt;/span&gt;&lt;/font&gt;&lt;/p&gt;" style="rounded=1;whiteSpace=wrap;html=1;" vertex="1" parent="1">
          <mxGeometry x="132.5" y="170" width="350" height="30" as="geometry" />
        </mxCell>
        <mxCell id="SgHDp7JAvpH6ReRA1i13-33" style="edgeStyle=orthogonalEdgeStyle;rounded=0;orthogonalLoop=1;jettySize=auto;html=1;exitX=0.5;exitY=1;exitDx=0;exitDy=0;entryX=0.5;entryY=0;entryDx=0;entryDy=0;" edge="1" parent="1" source="SgHDp7JAvpH6ReRA1i13-4" target="SgHDp7JAvpH6ReRA1i13-6">
          <mxGeometry relative="1" as="geometry" />
        </mxCell>
        <mxCell id="SgHDp7JAvpH6ReRA1i13-38" style="edgeStyle=orthogonalEdgeStyle;rounded=0;orthogonalLoop=1;jettySize=auto;html=1;exitX=1;exitY=0.5;exitDx=0;exitDy=0;entryX=0;entryY=0.5;entryDx=0;entryDy=0;" edge="1" parent="1" source="SgHDp7JAvpH6ReRA1i13-4" target="SgHDp7JAvpH6ReRA1i13-7">
          <mxGeometry relative="1" as="geometry" />
        </mxCell>
        <mxCell id="SgHDp7JAvpH6ReRA1i13-39" style="edgeStyle=orthogonalEdgeStyle;rounded=0;orthogonalLoop=1;jettySize=auto;html=1;exitX=1;exitY=0.5;exitDx=0;exitDy=0;entryX=0;entryY=0.5;entryDx=0;entryDy=0;" edge="1" parent="1" source="SgHDp7JAvpH6ReRA1i13-4" target="SgHDp7JAvpH6ReRA1i13-8">
          <mxGeometry relative="1" as="geometry" />
        </mxCell>
        <mxCell id="SgHDp7JAvpH6ReRA1i13-40" style="edgeStyle=orthogonalEdgeStyle;rounded=0;orthogonalLoop=1;jettySize=auto;html=1;exitX=1;exitY=0.5;exitDx=0;exitDy=0;entryX=0;entryY=0.5;entryDx=0;entryDy=0;" edge="1" parent="1" source="SgHDp7JAvpH6ReRA1i13-4" target="SgHDp7JAvpH6ReRA1i13-9">
          <mxGeometry relative="1" as="geometry" />
        </mxCell>
        <mxCell id="SgHDp7JAvpH6ReRA1i13-4" value="&lt;p style=&quot;margin-top: 0pt; margin-bottom: 0pt; margin-left: 0in; direction: ltr; unicode-bidi: embed; word-break: normal;&quot;&gt;&lt;span style=&quot;font-family: 微软雅黑;&quot;&gt;&lt;font style=&quot;font-size: 17px;&quot;&gt;Three Dimensions of Sustainability&lt;/font&gt;&lt;/span&gt;&lt;/p&gt;" style="rounded=1;whiteSpace=wrap;html=1;" vertex="1" parent="1">
          <mxGeometry x="132.5" y="220" width="350" height="30" as="geometry" />
        </mxCell>
        <mxCell id="SgHDp7JAvpH6ReRA1i13-6" value="&lt;p style=&quot;margin-top: 0pt; margin-bottom: 0pt; margin-left: 0in; direction: ltr; unicode-bidi: embed; word-break: normal;&quot;&gt;&lt;font style=&quot;font-size: 17px;&quot;&gt;&lt;b&gt;&lt;span style=&quot;font-family: 微软雅黑;&quot;&gt;M&lt;/span&gt;&lt;span style=&quot;font-family: 微软雅黑;&quot;&gt;ulticriteria Analysis&lt;/span&gt;&lt;/b&gt;&lt;/font&gt;&lt;/p&gt;" style="rounded=1;whiteSpace=wrap;html=1;" vertex="1" parent="1">
          <mxGeometry x="132.5" y="300" width="350" height="30" as="geometry" />
        </mxCell>
        <mxCell id="SgHDp7JAvpH6ReRA1i13-43" style="edgeStyle=orthogonalEdgeStyle;rounded=0;orthogonalLoop=1;jettySize=auto;html=1;exitX=1;exitY=0.5;exitDx=0;exitDy=0;entryX=0;entryY=0.5;entryDx=0;entryDy=0;" edge="1" parent="1" source="SgHDp7JAvpH6ReRA1i13-7" target="SgHDp7JAvpH6ReRA1i13-14">
          <mxGeometry relative="1" as="geometry" />
        </mxCell>
        <mxCell id="SgHDp7JAvpH6ReRA1i13-44" style="edgeStyle=orthogonalEdgeStyle;rounded=0;orthogonalLoop=1;jettySize=auto;html=1;exitX=1;exitY=0.5;exitDx=0;exitDy=0;" edge="1" parent="1" source="SgHDp7JAvpH6ReRA1i13-7" target="SgHDp7JAvpH6ReRA1i13-10">
          <mxGeometry relative="1" as="geometry" />
        </mxCell>
        <mxCell id="SgHDp7JAvpH6ReRA1i13-45" style="edgeStyle=orthogonalEdgeStyle;rounded=0;orthogonalLoop=1;jettySize=auto;html=1;exitX=1;exitY=0.5;exitDx=0;exitDy=0;entryX=0;entryY=0.5;entryDx=0;entryDy=0;" edge="1" parent="1" source="SgHDp7JAvpH6ReRA1i13-7" target="SgHDp7JAvpH6ReRA1i13-11">
          <mxGeometry relative="1" as="geometry" />
        </mxCell>
        <mxCell id="SgHDp7JAvpH6ReRA1i13-7" value="&lt;p style=&quot;margin-top: 0pt; margin-bottom: 0pt; margin-left: 0in; direction: ltr; unicode-bidi: embed; word-break: normal;&quot;&gt;&lt;span style=&quot;font-family: 微软雅黑;&quot;&gt;&lt;font style=&quot;font-size: 17px;&quot;&gt;Environmental Management&lt;/font&gt;&lt;/span&gt;&lt;/p&gt;" style="rounded=1;whiteSpace=wrap;html=1;" vertex="1" parent="1">
          <mxGeometry x="530" y="150" width="260" height="30" as="geometry" />
        </mxCell>
        <mxCell id="SgHDp7JAvpH6ReRA1i13-46" style="edgeStyle=orthogonalEdgeStyle;rounded=0;orthogonalLoop=1;jettySize=auto;html=1;exitX=1;exitY=0.5;exitDx=0;exitDy=0;entryX=0;entryY=0.5;entryDx=0;entryDy=0;" edge="1" parent="1" source="SgHDp7JAvpH6ReRA1i13-8" target="SgHDp7JAvpH6ReRA1i13-12">
          <mxGeometry relative="1" as="geometry" />
        </mxCell>
        <mxCell id="SgHDp7JAvpH6ReRA1i13-47" style="edgeStyle=orthogonalEdgeStyle;rounded=0;orthogonalLoop=1;jettySize=auto;html=1;exitX=1;exitY=0.5;exitDx=0;exitDy=0;entryX=0;entryY=0.5;entryDx=0;entryDy=0;" edge="1" parent="1" source="SgHDp7JAvpH6ReRA1i13-8" target="SgHDp7JAvpH6ReRA1i13-13">
          <mxGeometry relative="1" as="geometry" />
        </mxCell>
        <mxCell id="SgHDp7JAvpH6ReRA1i13-8" value="&lt;p style=&quot;margin-top: 0pt; margin-bottom: 0pt; margin-left: 0in; direction: ltr; unicode-bidi: embed; word-break: normal;&quot;&gt;&lt;span style=&quot;font-family: 微软雅黑;&quot;&gt;&lt;font style=&quot;font-size: 17px;&quot;&gt;Finance &amp;amp; Economic&lt;/font&gt;&lt;/span&gt;&lt;/p&gt;" style="rounded=1;whiteSpace=wrap;html=1;" vertex="1" parent="1">
          <mxGeometry x="530" y="250" width="260" height="30" as="geometry" />
        </mxCell>
        <mxCell id="SgHDp7JAvpH6ReRA1i13-48" style="edgeStyle=orthogonalEdgeStyle;rounded=0;orthogonalLoop=1;jettySize=auto;html=1;exitX=1;exitY=0.5;exitDx=0;exitDy=0;entryX=0;entryY=0.5;entryDx=0;entryDy=0;" edge="1" parent="1" source="SgHDp7JAvpH6ReRA1i13-9" target="SgHDp7JAvpH6ReRA1i13-31">
          <mxGeometry relative="1" as="geometry" />
        </mxCell>
        <mxCell id="SgHDp7JAvpH6ReRA1i13-49" style="edgeStyle=orthogonalEdgeStyle;rounded=0;orthogonalLoop=1;jettySize=auto;html=1;exitX=1;exitY=0.5;exitDx=0;exitDy=0;entryX=0;entryY=0.5;entryDx=0;entryDy=0;" edge="1" parent="1" source="SgHDp7JAvpH6ReRA1i13-9" target="SgHDp7JAvpH6ReRA1i13-15">
          <mxGeometry relative="1" as="geometry" />
        </mxCell>
        <mxCell id="SgHDp7JAvpH6ReRA1i13-9" value="&lt;p style=&quot;margin-top: 0pt; margin-bottom: 0pt; margin-left: 0in; direction: ltr; unicode-bidi: embed; word-break: normal;&quot;&gt;&lt;span style=&quot;font-family: 微软雅黑;&quot;&gt;&lt;font style=&quot;font-size: 17px;&quot;&gt;Social Management&lt;/font&gt;&lt;/span&gt;&lt;/p&gt;" style="rounded=1;whiteSpace=wrap;html=1;" vertex="1" parent="1">
          <mxGeometry x="530" y="330" width="260" height="30" as="geometry" />
        </mxCell>
        <mxCell id="SgHDp7JAvpH6ReRA1i13-10" value="&lt;p style=&quot;margin-top: 0pt; margin-bottom: 0pt; margin-left: 0in; direction: ltr; unicode-bidi: embed; word-break: normal;&quot;&gt;&lt;span style=&quot;font-size: 11pt; font-family: 微软雅黑;&quot;&gt;Air Pollution&lt;/span&gt;&lt;/p&gt;" style="rounded=1;whiteSpace=wrap;html=1;" vertex="1" parent="1">
          <mxGeometry x="830" y="150" width="220" height="30" as="geometry" />
        </mxCell>
        <mxCell id="SgHDp7JAvpH6ReRA1i13-11" value="&lt;p style=&quot;margin-top: 0pt; margin-bottom: 0pt; margin-left: 0in; direction: ltr; unicode-bidi: embed; word-break: normal;&quot;&gt;&lt;span style=&quot;font-size: 11pt; font-family: 微软雅黑;&quot;&gt;Other Environmental Factors&lt;/span&gt;&lt;/p&gt;" style="rounded=1;whiteSpace=wrap;html=1;" vertex="1" parent="1">
          <mxGeometry x="830" y="190" width="220" height="30" as="geometry" />
        </mxCell>
        <mxCell id="SgHDp7JAvpH6ReRA1i13-12" value="&lt;p style=&quot;margin-top: 0pt; margin-bottom: 0pt; margin-left: 0in; direction: ltr; unicode-bidi: embed; word-break: normal;&quot;&gt;&lt;span style=&quot;font-size: 11pt; font-family: 微软雅黑;&quot;&gt;Government Taxation&lt;/span&gt;&lt;/p&gt;" style="rounded=1;whiteSpace=wrap;html=1;" vertex="1" parent="1">
          <mxGeometry x="830" y="230" width="220" height="30" as="geometry" />
        </mxCell>
        <mxCell id="SgHDp7JAvpH6ReRA1i13-13" value="&lt;p style=&quot;margin-top: 0pt; margin-bottom: 0pt; margin-left: 0in; direction: ltr; unicode-bidi: embed; word-break: normal;&quot;&gt;&lt;span style=&quot;font-size: 11pt; font-family: 微软雅黑;&quot;&gt;Government Investment&lt;/span&gt;&lt;/p&gt;" style="rounded=1;whiteSpace=wrap;html=1;" vertex="1" parent="1">
          <mxGeometry x="830" y="270" width="220" height="30" as="geometry" />
        </mxCell>
        <mxCell id="SgHDp7JAvpH6ReRA1i13-14" value="&lt;p style=&quot;margin-top: 0pt; margin-bottom: 0pt; margin-left: 0in; direction: ltr; unicode-bidi: embed; word-break: normal;&quot;&gt;&lt;span style=&quot;font-size: 11pt; font-family: 微软雅黑;&quot;&gt;Energy&lt;/span&gt;&lt;/p&gt;" style="rounded=1;whiteSpace=wrap;html=1;" vertex="1" parent="1">
          <mxGeometry x="830" y="110" width="220" height="30" as="geometry" />
        </mxCell>
        <mxCell id="SgHDp7JAvpH6ReRA1i13-15" value="&lt;p style=&quot;margin-top: 0pt; margin-bottom: 0pt; margin-left: 0in; direction: ltr; unicode-bidi: embed; word-break: normal;&quot;&gt;&lt;span style=&quot;font-size: 11pt; font-family: 微软雅黑;&quot;&gt;Infrastructure Construction&lt;/span&gt;&lt;/p&gt;" style="rounded=1;whiteSpace=wrap;html=1;" vertex="1" parent="1">
          <mxGeometry x="830" y="350" width="220" height="30" as="geometry" />
        </mxCell>
        <mxCell id="SgHDp7JAvpH6ReRA1i13-66" value="" style="edgeStyle=orthogonalEdgeStyle;rounded=0;orthogonalLoop=1;jettySize=auto;html=1;" edge="1" parent="1" source="SgHDp7JAvpH6ReRA1i13-16" target="SgHDp7JAvpH6ReRA1i13-56">
          <mxGeometry relative="1" as="geometry" />
        </mxCell>
        <mxCell id="SgHDp7JAvpH6ReRA1i13-16" value="&lt;p style=&quot;margin-top: 0pt; margin-bottom: 0pt; margin-left: 0in; direction: ltr; unicode-bidi: embed; word-break: normal;&quot;&gt;&lt;b&gt;&lt;font style=&quot;font-size: 18px;&quot;&gt;&lt;span style=&quot;font-family: 微软雅黑;&quot;&gt;Multi-criteria &lt;/span&gt;&lt;span style=&quot;font-family: 微软雅黑;&quot;&gt;Decision-making &lt;/span&gt;&lt;span style=&quot;font-family: 微软雅黑;&quot;&gt;M&lt;/span&gt;&lt;span style=&quot;font-family: 微软雅黑;&quot;&gt;odel&lt;/span&gt;&lt;/font&gt;&lt;/b&gt;&lt;/p&gt;" style="rounded=1;whiteSpace=wrap;html=1;" vertex="1" parent="1">
          <mxGeometry x="111.25" y="410" width="392.5" height="30" as="geometry" />
        </mxCell>
        <mxCell id="SgHDp7JAvpH6ReRA1i13-92" style="edgeStyle=orthogonalEdgeStyle;rounded=0;orthogonalLoop=1;jettySize=auto;html=1;exitX=0.5;exitY=1;exitDx=0;exitDy=0;entryX=0.5;entryY=0;entryDx=0;entryDy=0;" edge="1" parent="1" source="SgHDp7JAvpH6ReRA1i13-17" target="SgHDp7JAvpH6ReRA1i13-84">
          <mxGeometry relative="1" as="geometry" />
        </mxCell>
        <mxCell id="SgHDp7JAvpH6ReRA1i13-93" style="edgeStyle=orthogonalEdgeStyle;rounded=0;orthogonalLoop=1;jettySize=auto;html=1;exitX=0.5;exitY=1;exitDx=0;exitDy=0;entryX=0.5;entryY=0;entryDx=0;entryDy=0;" edge="1" parent="1" source="SgHDp7JAvpH6ReRA1i13-17" target="SgHDp7JAvpH6ReRA1i13-85">
          <mxGeometry relative="1" as="geometry" />
        </mxCell>
        <mxCell id="SgHDp7JAvpH6ReRA1i13-17" value="&lt;p style=&quot;margin-top: 0pt; margin-bottom: 0pt; margin-left: 0in; direction: ltr; unicode-bidi: embed; word-break: normal;&quot;&gt;&lt;span style=&quot;font-size: 14pt; font-family: 微软雅黑;&quot;&gt;Multi-criteria Optimization &lt;/span&gt;&lt;span style=&quot;font-size: 14pt; font-family: 微软雅黑;&quot;&gt;F&lt;/span&gt;&lt;span style=&quot;font-size: 14pt; font-family: 微软雅黑;&quot;&gt;unction&lt;/span&gt;&lt;/p&gt;" style="rounded=1;whiteSpace=wrap;html=1;" vertex="1" parent="1">
          <mxGeometry x="126.25" y="470" width="362.5" height="30" as="geometry" />
        </mxCell>
        <mxCell id="SgHDp7JAvpH6ReRA1i13-67" style="edgeStyle=orthogonalEdgeStyle;rounded=0;orthogonalLoop=1;jettySize=auto;html=1;entryX=0;entryY=0.5;entryDx=0;entryDy=0;curved=1;" edge="1" parent="1" source="SgHDp7JAvpH6ReRA1i13-18" target="SgHDp7JAvpH6ReRA1i13-20">
          <mxGeometry relative="1" as="geometry" />
        </mxCell>
        <mxCell id="SgHDp7JAvpH6ReRA1i13-18" value="&lt;p style=&quot;margin-top: 0pt; margin-bottom: 0pt; margin-left: 0in; direction: ltr; unicode-bidi: embed; word-break: normal;&quot;&gt;&lt;span style=&quot;font-size: 14pt; font-family: 微软雅黑;&quot;&gt;Constraints Base on Criteria&lt;/span&gt;&lt;/p&gt;" style="rounded=1;whiteSpace=wrap;html=1;" vertex="1" parent="1">
          <mxGeometry x="117.49999999999999" y="590" width="363.75" height="30" as="geometry" />
        </mxCell>
        <mxCell id="SgHDp7JAvpH6ReRA1i13-19" value="&lt;p style=&quot;margin-top: 0pt; margin-bottom: 0pt; margin-left: 0in; direction: ltr; unicode-bidi: embed; word-break: normal;&quot;&gt;&lt;span style=&quot;font-size: 14pt; font-family: 微软雅黑;&quot;&gt;Dynamic Feedback Loop&lt;/span&gt;&lt;/p&gt;" style="rounded=1;whiteSpace=wrap;html=1;" vertex="1" parent="1">
          <mxGeometry x="120" y="640" width="363.75" height="30" as="geometry" />
        </mxCell>
        <mxCell id="SgHDp7JAvpH6ReRA1i13-60" style="edgeStyle=orthogonalEdgeStyle;rounded=0;orthogonalLoop=1;jettySize=auto;html=1;exitX=0.5;exitY=1;exitDx=0;exitDy=0;entryX=0.5;entryY=0;entryDx=0;entryDy=0;" edge="1" parent="1" source="SgHDp7JAvpH6ReRA1i13-20" target="SgHDp7JAvpH6ReRA1i13-21">
          <mxGeometry relative="1" as="geometry" />
        </mxCell>
        <mxCell id="SgHDp7JAvpH6ReRA1i13-20" value="&lt;p style=&quot;margin-top: 0pt; margin-bottom: 0pt; margin-left: 0in; direction: ltr; unicode-bidi: embed; word-break: normal;&quot;&gt;&lt;span style=&quot;font-size: 16pt; font-family: 等线; font-weight: bold;&quot;&gt;Nonlinear Multi-Objective Programming&lt;/span&gt;&lt;/p&gt;" style="rounded=1;whiteSpace=wrap;html=1;" vertex="1" parent="1">
          <mxGeometry x="560" y="410" width="480" height="30" as="geometry" />
        </mxCell>
        <mxCell id="SgHDp7JAvpH6ReRA1i13-62" value="" style="edgeStyle=orthogonalEdgeStyle;rounded=0;orthogonalLoop=1;jettySize=auto;html=1;" edge="1" parent="1" source="SgHDp7JAvpH6ReRA1i13-21" target="SgHDp7JAvpH6ReRA1i13-55">
          <mxGeometry relative="1" as="geometry" />
        </mxCell>
        <mxCell id="SgHDp7JAvpH6ReRA1i13-21" value="&lt;p style=&quot;margin-top: 0pt; margin-bottom: 0pt; margin-left: 0in; direction: ltr; unicode-bidi: embed; word-break: normal;&quot;&gt;&lt;span style=&quot;font-family: 微软雅黑;&quot;&gt;&lt;font style=&quot;font-size: 18px;&quot;&gt;Genetic Algorithm Optimization&lt;/font&gt;&lt;/span&gt;&lt;/p&gt;" style="rounded=1;whiteSpace=wrap;html=1;" vertex="1" parent="1">
          <mxGeometry x="580" y="460" width="440" height="30" as="geometry" />
        </mxCell>
        <mxCell id="SgHDp7JAvpH6ReRA1i13-50" style="edgeStyle=orthogonalEdgeStyle;rounded=0;orthogonalLoop=1;jettySize=auto;html=1;exitX=1;exitY=0.5;exitDx=0;exitDy=0;entryX=0;entryY=0.5;entryDx=0;entryDy=0;" edge="1" parent="1" source="SgHDp7JAvpH6ReRA1i13-22" target="SgHDp7JAvpH6ReRA1i13-25">
          <mxGeometry relative="1" as="geometry" />
        </mxCell>
        <mxCell id="SgHDp7JAvpH6ReRA1i13-51" style="edgeStyle=orthogonalEdgeStyle;rounded=0;orthogonalLoop=1;jettySize=auto;html=1;exitX=1;exitY=0.5;exitDx=0;exitDy=0;entryX=0;entryY=0.5;entryDx=0;entryDy=0;" edge="1" parent="1" source="SgHDp7JAvpH6ReRA1i13-22" target="SgHDp7JAvpH6ReRA1i13-26">
          <mxGeometry relative="1" as="geometry" />
        </mxCell>
        <mxCell id="SgHDp7JAvpH6ReRA1i13-53" style="edgeStyle=orthogonalEdgeStyle;rounded=0;orthogonalLoop=1;jettySize=auto;html=1;exitX=1;exitY=0.5;exitDx=0;exitDy=0;entryX=0;entryY=0.5;entryDx=0;entryDy=0;" edge="1" parent="1" source="SgHDp7JAvpH6ReRA1i13-22" target="SgHDp7JAvpH6ReRA1i13-24">
          <mxGeometry relative="1" as="geometry" />
        </mxCell>
        <mxCell id="SgHDp7JAvpH6ReRA1i13-54" style="edgeStyle=orthogonalEdgeStyle;rounded=0;orthogonalLoop=1;jettySize=auto;html=1;exitX=1;exitY=0.5;exitDx=0;exitDy=0;entryX=0;entryY=0.5;entryDx=0;entryDy=0;" edge="1" parent="1" source="SgHDp7JAvpH6ReRA1i13-22" target="SgHDp7JAvpH6ReRA1i13-23">
          <mxGeometry relative="1" as="geometry" />
        </mxCell>
        <mxCell id="SgHDp7JAvpH6ReRA1i13-22" value="&lt;p style=&quot;margin-top: 0pt; margin-bottom: 0pt; margin-left: 0in; direction: ltr; unicode-bidi: embed; word-break: normal;&quot;&gt;&lt;span style=&quot;font-family: 微软雅黑;&quot;&gt;&lt;font style=&quot;font-size: 16px;&quot;&gt;Better decision&lt;/font&gt;&lt;/span&gt;&lt;/p&gt;" style="rounded=1;whiteSpace=wrap;html=1;" vertex="1" parent="1">
          <mxGeometry x="600" y="580" width="120" height="30" as="geometry" />
        </mxCell>
        <mxCell id="SgHDp7JAvpH6ReRA1i13-23" value="&lt;p style=&quot;margin-top: 0pt; margin-bottom: 0pt; margin-left: 0in; direction: ltr; unicode-bidi: embed; word-break: normal;&quot;&gt;&lt;span style=&quot;font-family: 微软雅黑;&quot;&gt;&lt;font style=&quot;font-size: 16px;&quot;&gt;Engage Decision Makers&lt;/font&gt;&lt;/span&gt;&lt;/p&gt;" style="rounded=1;whiteSpace=wrap;html=1;" vertex="1" parent="1">
          <mxGeometry x="770" y="520" width="210" height="30" as="geometry" />
        </mxCell>
        <mxCell id="SgHDp7JAvpH6ReRA1i13-24" value="&lt;p style=&quot;margin-top: 0pt; margin-bottom: 0pt; margin-left: 0in; direction: ltr; unicode-bidi: embed; word-break: normal;&quot;&gt;&lt;span style=&quot;font-family: 微软雅黑;&quot;&gt;&lt;font style=&quot;font-size: 16px;&quot;&gt;Greater Stability&lt;/font&gt;&lt;/span&gt;&lt;/p&gt;" style="rounded=1;whiteSpace=wrap;html=1;" vertex="1" parent="1">
          <mxGeometry x="770" y="560" width="210" height="30" as="geometry" />
        </mxCell>
        <mxCell id="SgHDp7JAvpH6ReRA1i13-25" value="&lt;p style=&quot;margin-top: 0pt; margin-bottom: 0pt; margin-left: 0in; direction: ltr; unicode-bidi: embed; word-break: normal;&quot;&gt;&lt;span style=&quot;font-family: 微软雅黑;&quot;&gt;&lt;font style=&quot;font-size: 16px;&quot;&gt;Faster Convergence&lt;/font&gt;&lt;/span&gt;&lt;/p&gt;" style="rounded=1;whiteSpace=wrap;html=1;" vertex="1" parent="1">
          <mxGeometry x="770" y="600" width="210" height="30" as="geometry" />
        </mxCell>
        <mxCell id="SgHDp7JAvpH6ReRA1i13-26" value="&lt;p style=&quot;margin-top: 0pt; margin-bottom: 0pt; margin-left: 0in; direction: ltr; unicode-bidi: embed; word-break: normal;&quot;&gt;&lt;span style=&quot;font-family: 微软雅黑;&quot;&gt;&lt;font style=&quot;font-size: 16px;&quot;&gt;Better Sensitivity&lt;/font&gt;&lt;/span&gt;&lt;/p&gt;" style="rounded=1;whiteSpace=wrap;html=1;" vertex="1" parent="1">
          <mxGeometry x="770" y="640" width="210" height="30" as="geometry" />
        </mxCell>
        <mxCell id="SgHDp7JAvpH6ReRA1i13-65" style="edgeStyle=orthogonalEdgeStyle;rounded=0;orthogonalLoop=1;jettySize=auto;html=1;" edge="1" parent="1" source="SgHDp7JAvpH6ReRA1i13-29" target="SgHDp7JAvpH6ReRA1i13-16">
          <mxGeometry relative="1" as="geometry" />
        </mxCell>
        <mxCell id="SgHDp7JAvpH6ReRA1i13-29" value="" style="rounded=0;whiteSpace=wrap;html=1;fillColor=none;dashed=1;strokeWidth=3;strokeColor=light-dark(#82b0d2, #ededed);" vertex="1" parent="1">
          <mxGeometry x="117.5" y="340" width="380" height="50" as="geometry" />
        </mxCell>
        <mxCell id="SgHDp7JAvpH6ReRA1i13-31" value="&lt;p style=&quot;margin-top: 0pt; margin-bottom: 0pt; margin-left: 0in; direction: ltr; unicode-bidi: embed; word-break: normal;&quot;&gt;&lt;span style=&quot;font-size: 11pt; font-family: 微软雅黑;&quot;&gt;Social Welfare&lt;/span&gt;&lt;/p&gt;" style="rounded=1;whiteSpace=wrap;html=1;" vertex="1" parent="1">
          <mxGeometry x="830" y="310" width="220" height="30" as="geometry" />
        </mxCell>
        <mxCell id="SgHDp7JAvpH6ReRA1i13-34" value="MCDA" style="rounded=1;whiteSpace=wrap;html=1;" vertex="1" parent="1">
          <mxGeometry x="132.5" y="347.5" width="97.5" height="35" as="geometry" />
        </mxCell>
        <mxCell id="SgHDp7JAvpH6ReRA1i13-35" value="AHP" style="rounded=1;whiteSpace=wrap;html=1;" vertex="1" parent="1">
          <mxGeometry x="261.25" y="347.5" width="97.5" height="35" as="geometry" />
        </mxCell>
        <mxCell id="SgHDp7JAvpH6ReRA1i13-36" value="&lt;p style=&quot;language:zh-CN;margin-top:0pt;margin-bottom:0pt;margin-left:0in;&lt;br/&gt;text-align:left;direction:ltr;unicode-bidi:embed;mso-line-break-override:none;&lt;br/&gt;word-break:normal;punctuation-wrap:hanging&quot;&gt;&lt;span style=&quot;font-family: 微软雅黑; color: rgb(6, 6, 7);&quot;&gt;&lt;font&gt;Weighted Sum&lt;/font&gt;&lt;/span&gt;&lt;/p&gt;" style="rounded=1;whiteSpace=wrap;html=1;" vertex="1" parent="1">
          <mxGeometry x="385" y="347.5" width="97.5" height="35" as="geometry" />
        </mxCell>
        <mxCell id="SgHDp7JAvpH6ReRA1i13-41" value="" style="rounded=0;whiteSpace=wrap;html=1;fillColor=none;dashed=1;strokeWidth=3;strokeColor=light-dark(#82b0d2, #ededed);" vertex="1" parent="1">
          <mxGeometry x="520" y="100" width="540" height="290" as="geometry" />
        </mxCell>
        <mxCell id="SgHDp7JAvpH6ReRA1i13-71" value="&lt;span style=&quot;color: rgb(86, 148, 194); font-size: 26px; font-weight: 700;&quot;&gt;Final Decision&lt;/span&gt;" style="rounded=1;whiteSpace=wrap;html=1;fillColor=#f5f5f5;fontColor=#333333;strokeColor=#666666;" vertex="1" parent="1">
          <mxGeometry x="112.5" y="720" width="940" height="40" as="geometry" />
        </mxCell>
        <mxCell id="SgHDp7JAvpH6ReRA1i13-76" style="edgeStyle=orthogonalEdgeStyle;rounded=0;orthogonalLoop=1;jettySize=auto;html=1;exitX=0.5;exitY=0;exitDx=0;exitDy=0;entryX=0;entryY=0.5;entryDx=0;entryDy=0;" edge="1" parent="1" source="SgHDp7JAvpH6ReRA1i13-74" target="SgHDp7JAvpH6ReRA1i13-3">
          <mxGeometry relative="1" as="geometry" />
        </mxCell>
        <mxCell id="SgHDp7JAvpH6ReRA1i13-74" value="&lt;p style=&quot;margin-top: 0pt; margin-bottom: 0pt; margin-left: 0in; direction: ltr; unicode-bidi: embed; word-break: normal;&quot;&gt;&lt;font style=&quot;font-size: 15px;&quot;&gt;&lt;span style=&quot;font-family: 微软雅黑;&quot;&gt;Juneau&#39;s C&lt;/span&gt;&lt;span style=&quot;font-family: 微软雅黑;&quot;&gt;urrent Tourism Dilemma&lt;/span&gt;&lt;/font&gt;&lt;/p&gt;" style="rounded=1;whiteSpace=wrap;html=1;" vertex="1" parent="1">
          <mxGeometry x="-50" y="260" width="130" height="55" as="geometry" />
        </mxCell>
        <mxCell id="SgHDp7JAvpH6ReRA1i13-82" style="edgeStyle=orthogonalEdgeStyle;rounded=0;orthogonalLoop=1;jettySize=auto;html=1;" edge="1" parent="1" source="SgHDp7JAvpH6ReRA1i13-80" target="SgHDp7JAvpH6ReRA1i13-81">
          <mxGeometry relative="1" as="geometry" />
        </mxCell>
        <mxCell id="SgHDp7JAvpH6ReRA1i13-80" value="&lt;p style=&quot;margin-top: 0pt; margin-bottom: 0pt; margin-left: 0in; direction: ltr; unicode-bidi: embed; word-break: normal;&quot;&gt;&lt;font style=&quot;font-size: 15px;&quot;&gt;&lt;span style=&quot;font-family: 微软雅黑;&quot;&gt;Juneau&#39;s&lt;/span&gt;&lt;span style=&quot;font-family: 微软雅黑;&quot;&gt; Public Data&lt;/span&gt;&lt;/font&gt;&lt;/p&gt;" style="rounded=1;whiteSpace=wrap;html=1;" vertex="1" parent="1">
          <mxGeometry x="1110" y="115" width="90" height="55" as="geometry" />
        </mxCell>
        <mxCell id="SgHDp7JAvpH6ReRA1i13-83" style="edgeStyle=orthogonalEdgeStyle;rounded=0;orthogonalLoop=1;jettySize=auto;html=1;entryX=1;entryY=0.5;entryDx=0;entryDy=0;" edge="1" parent="1" source="SgHDp7JAvpH6ReRA1i13-81" target="SgHDp7JAvpH6ReRA1i13-41">
          <mxGeometry relative="1" as="geometry" />
        </mxCell>
        <mxCell id="SgHDp7JAvpH6ReRA1i13-81" value="&lt;p style=&quot;margin-top: 0pt; margin-bottom: 0pt; margin-left: 0in; direction: ltr; unicode-bidi: embed; word-break: normal;&quot;&gt;&lt;font face=&quot;微软雅黑&quot;&gt;&lt;span style=&quot;font-size: 15px;&quot;&gt;Data Analyze&lt;/span&gt;&lt;/font&gt;&lt;/p&gt;" style="rounded=1;whiteSpace=wrap;html=1;" vertex="1" parent="1">
          <mxGeometry x="1110" y="217.5" width="90" height="55" as="geometry" />
        </mxCell>
        <mxCell id="SgHDp7JAvpH6ReRA1i13-84" value="&lt;p style=&quot;margin-top: 0pt; margin-bottom: 0pt; margin-left: 0in; direction: ltr; unicode-bidi: embed; word-break: normal;&quot;&gt;&lt;span style=&quot;font-size:12.0pt;mso-bidi-font-size:&lt;br/&gt;10.5pt;font-family:&amp;quot;Times New Roman&amp;quot;,serif;mso-fareast-font-family:宋体;&lt;br/&gt;mso-bidi-theme-font:minor-bidi;mso-ansi-language:EN-US;mso-fareast-language:&lt;br/&gt;ZH-CN;mso-bidi-language:AR-SA&quot; lang=&quot;EN-US&quot;&gt;Piecewise Function&lt;/span&gt;&lt;/p&gt;" style="rounded=1;whiteSpace=wrap;html=1;" vertex="1" parent="1">
          <mxGeometry x="132.5" y="530" width="168.75" height="30" as="geometry" />
        </mxCell>
        <mxCell id="SgHDp7JAvpH6ReRA1i13-85" value="&lt;p style=&quot;margin-top: 0pt; margin-bottom: 0pt; margin-left: 0in; direction: ltr; unicode-bidi: embed; word-break: normal;&quot;&gt;&lt;span style=&quot;font-size:12.0pt;mso-bidi-font-size:&lt;br/&gt;10.5pt;font-family:&amp;quot;Times New Roman&amp;quot;,serif;mso-fareast-font-family:宋体;&lt;br/&gt;mso-bidi-theme-font:minor-bidi;mso-ansi-language:EN-US;mso-fareast-language:&lt;br/&gt;ZH-CN;mso-bidi-language:AR-SA&quot; lang=&quot;EN-US&quot;&gt;Dynamic Function&lt;/span&gt;&lt;/p&gt;" style="rounded=1;whiteSpace=wrap;html=1;" vertex="1" parent="1">
          <mxGeometry x="312.5" y="530" width="168.75" height="30" as="geometry" />
        </mxCell>
        <mxCell id="SgHDp7JAvpH6ReRA1i13-89" style="edgeStyle=orthogonalEdgeStyle;rounded=0;orthogonalLoop=1;jettySize=auto;html=1;exitX=0.5;exitY=1;exitDx=0;exitDy=0;entryX=0.514;entryY=0.041;entryDx=0;entryDy=0;entryPerimeter=0;" edge="1" parent="1" source="SgHDp7JAvpH6ReRA1i13-85" target="SgHDp7JAvpH6ReRA1i13-18">
          <mxGeometry relative="1" as="geometry">
            <Array as="points">
              <mxPoint x="398" y="560" />
              <mxPoint x="398" y="570" />
              <mxPoint x="305" y="570" />
            </Array>
          </mxGeometry>
        </mxCell>
        <mxCell id="SgHDp7JAvpH6ReRA1i13-91" style="edgeStyle=orthogonalEdgeStyle;rounded=0;orthogonalLoop=1;jettySize=auto;html=1;exitX=0.5;exitY=1;exitDx=0;exitDy=0;entryX=0.515;entryY=0.009;entryDx=0;entryDy=0;entryPerimeter=0;" edge="1" parent="1" source="SgHDp7JAvpH6ReRA1i13-84" target="SgHDp7JAvpH6ReRA1i13-18">
          <mxGeometry relative="1" as="geometry">
            <Array as="points">
              <mxPoint x="217" y="570" />
              <mxPoint x="305" y="570" />
            </Array>
          </mxGeometry>
        </mxCell>
      </root>
    </mxGraphModel>
  </diagram>
</mxfile>
